<svg version="1.2" xmlns="http://www.w3.org/2000/svg" viewBox="0 0 611 425" width="611" height="425">
	<title>svgHello1-svg</title>
	<style>
		.s0 { fill: #cccccc } 
		.s1 { fill: #f2f2f2 } 
		.s2 { fill: #335384 } 
		.s3 { fill: #3f3d56 } 
		.s4 { fill: #ffffff } 
		.s5 { fill: #e6e6e6 } 
		.s6 { fill: #ffb6b6 } 
		.s7 { fill: #e4e4e4 } 
		.s8 { fill: #2f2e41 } 
	</style>
	<path id="Layer" class="s0" d="m592.4 175.3h-574.6c-2.4 0-4.8 0.9-6.5 2.7-1.7 1.7-2.7 4-2.7 6.5 0 2.4 1 4.7 2.7 6.5 1.7 1.7 4.1 2.7 6.5 2.7h16.3v220c0 2.5 0.9 4.8 2.7 6.5 1.7 1.8 4 2.7 6.5 2.7 2.4 0 4.8-0.9 6.5-2.7 1.7-1.7 2.7-4 2.7-6.5l0.1-220h461.2l42.5 220c0 2.5 1 4.8 2.7 6.5 1.7 1.8 4.1 2.7 6.5 2.7 2.4 0 4.8-0.9 6.5-2.7 1.7-1.7 2.7-4 2.7-6.5l2.7-220h15c2.4 0 4.8-1 6.5-2.7 1.7-1.8 2.7-4.1 2.7-6.5 0-2.5-1-4.8-2.7-6.5-1.7-1.8-4.1-2.7-6.5-2.7z"/>
	<path id="Layer" class="s1" d="m154.4 135.3v38.9h-97.6c-5.2 0.2-10.2-1.7-14-5.2-3.7-3.5-6-8.4-6.2-13.6-0.1-5.1 1.7-10.2 5.3-13.9 3.5-3.8 8.4-6.1 13.5-6.2q0.7-0.1 1.4 0z"/>
	<path id="Layer" class="s2" d="m156.8 173.9q0 0.3-0.1 0.6-0.1 0.3-0.3 0.5-0.3 0.2-0.5 0.3-0.3 0.1-0.6 0.1h-100.2c-5.5 0-10.7-2.1-14.5-6-3.9-3.8-6-9.1-6-14.5 0-5.4 2.1-10.7 6-14.5 3.8-3.9 9-6 14.5-6h100.2c0.4 0 0.8 0.1 1.1 0.4 0.2 0.3 0.4 0.7 0.4 1.1 0 0.4-0.2 0.7-0.4 1-0.3 0.3-0.7 0.5-1.1 0.5h-100.2c-4.7 0-9.1 1.8-12.4 5.1-3.3 3.3-5.1 7.8-5.1 12.4 0 4.6 1.8 9.1 5.1 12.4 3.3 3.3 7.7 5.1 12.4 5.1h100.2q0.3 0 0.6 0.1 0.2 0.2 0.5 0.4 0.2 0.2 0.3 0.5 0.1 0.2 0.1 0.5z"/>
	<path id="Layer" class="s0" d="m154.4 144.3h-104.9q-0.1 0-0.2-0.1-0.1-0.1-0.1-0.2 0-0.2 0.1-0.3 0.1 0 0.2 0h104.9q0.1 0 0.2 0 0.1 0.1 0.1 0.3 0 0.1-0.1 0.2-0.1 0.1-0.2 0.1z"/>
	<path id="Layer" class="s0" d="m154.4 151.4h-104.9q-0.1 0-0.2 0-0.1-0.1-0.1-0.2 0-0.2 0.1-0.3 0.1 0 0.2 0h104.9q0.1 0 0.2 0 0.1 0.1 0.1 0.3 0 0.1-0.1 0.2-0.1 0-0.2 0z"/>
	<path id="Layer" class="s0" d="m154.4 158.6h-104.9q-0.1 0-0.2 0-0.1-0.1-0.1-0.3 0-0.1 0.1-0.2 0.1-0.1 0.2-0.1h104.9q0.1 0 0.2 0.1 0.1 0.1 0.1 0.2 0 0.2-0.1 0.3-0.1 0-0.2 0z"/>
	<path id="Layer" class="s0" d="m154.4 165.8h-104.9q-0.1 0-0.2-0.1-0.1 0-0.1-0.2 0-0.1 0.1-0.2 0.1-0.1 0.2-0.1h104.9q0.1 0 0.2 0.1 0.1 0.1 0.1 0.2 0 0.2-0.1 0.2-0.1 0.1-0.2 0.1z"/>
	<path id="Layer" class="s1" d="m136 94.2v39h-97.6c-5.2 0.2-10.2-1.7-14-5.2-3.7-3.6-6-8.5-6.1-13.6-0.2-5.2 1.7-10.2 5.2-14 3.5-3.8 8.4-6 13.6-6.2q0.6 0 1.3 0z"/>
	<path id="Layer" class="s3" d="m138.4 132.9q0 0.3-0.1 0.6-0.1 0.2-0.3 0.4-0.2 0.3-0.5 0.4-0.3 0.1-0.6 0.1h-100.2c-5.5 0-10.7-2.2-14.5-6-3.9-3.9-6.1-9.1-6.1-14.5 0-5.5 2.2-10.7 6.1-14.6 3.8-3.8 9-6 14.5-6h100.2c0.4 0 0.8 0.2 1.1 0.5 0.2 0.2 0.4 0.6 0.4 1 0 0.4-0.2 0.8-0.4 1.1-0.3 0.3-0.7 0.4-1.1 0.4h-100.2c-4.7 0-9.1 1.9-12.4 5.2-3.3 3.2-5.2 7.7-5.2 12.4 0 4.6 1.9 9.1 5.2 12.4 3.3 3.2 7.7 5.1 12.4 5.1h100.2q0.3 0 0.6 0.1 0.3 0.1 0.5 0.3 0.2 0.2 0.3 0.5 0.1 0.3 0.1 0.6z"/>
	<path id="Layer" class="s0" d="m136 103.2h-104.9q-0.1 0-0.2-0.1-0.1-0.1-0.1-0.2 0-0.1 0.1-0.2 0.1-0.1 0.2-0.1h104.9q0.1 0 0.2 0.1 0.1 0.1 0.1 0.2 0 0.1-0.1 0.2-0.1 0.1-0.2 0.1z"/>
	<path id="Layer" class="s0" d="m136 110.4h-104.9q-0.1 0-0.2-0.1-0.1-0.1-0.1-0.2 0-0.1 0.1-0.2 0.1-0.1 0.2-0.1h104.9q0.1 0 0.2 0.1 0.1 0.1 0.1 0.2 0 0.1-0.1 0.2-0.1 0.1-0.2 0.1z"/>
	<path id="Layer" class="s0" d="m136 117.6h-104.9q-0.1 0-0.2-0.1-0.1-0.1-0.1-0.2 0-0.1 0.1-0.2 0.1-0.1 0.2-0.1h104.9q0.1 0 0.2 0.1 0.1 0.1 0.1 0.2 0 0.1-0.1 0.2-0.1 0.1-0.2 0.1z"/>
	<path id="Layer" class="s0" d="m136 124.8h-104.9q-0.1 0-0.2-0.1-0.1-0.1-0.1-0.2 0-0.1 0.1-0.2 0.1-0.1 0.2-0.1h104.9q0.1 0 0.2 0.1 0.1 0.1 0.1 0.2 0 0.1-0.1 0.2-0.1 0.1-0.2 0.1z"/>
	<path id="Layer" class="s0" d="m212.5 313.1v-34q0-1.1-0.4-2.1-0.4-1.1-1.2-1.9-0.8-0.8-1.9-1.2-1-0.4-2.1-0.4h-128.8q-1.1 0-2.2 0.4-1 0.4-1.8 1.2-0.8 0.8-1.2 1.9-0.5 1-0.5 2.1v34z"/>
	<path id="Layer" class="s0" d="m72.4 325.8h140.1v43.9h-140.1z"/>
	<path id="Layer" class="s0" d="m72.4 382.4v34q0 1.1 0.5 2.2 0.4 1 1.2 1.8 0.8 0.8 1.8 1.2 1.1 0.5 2.2 0.5h128.8q1.1 0 2.1-0.5 1.1-0.4 1.9-1.2 0.8-0.8 1.2-1.8 0.4-1.1 0.4-2.2v-34z"/>
	<path id="Layer" class="s4" d="m141.8 298.9c-2.4 0-4.3-1.8-4.3-4.2 0-2.3 1.9-4.2 4.3-4.2 2.3 0 4.2 1.9 4.2 4.2 0 2.4-1.9 4.2-4.2 4.2z"/>
	<path id="Layer" class="s4" d="m141.8 355.6c-2.4 0-4.3-1.9-4.3-4.3 0-2.3 1.9-4.2 4.3-4.2 2.3 0 4.2 1.9 4.2 4.2 0 2.4-1.9 4.3-4.2 4.3z"/>
	<path id="Layer" class="s4" d="m142 411c-2.3 0-4.2-1.9-4.2-4.3 0-2.3 1.9-4.2 4.2-4.2 2.4 0 4.2 1.9 4.2 4.2 0 2.4-1.8 4.3-4.2 4.3z"/>
	<path id="Layer" class="s1" d="m196.7 234.7v39h-97.6c-5.2 0.2-10.2-1.7-14-5.2-3.8-3.6-6-8.4-6.2-13.6-0.2-5.2 1.7-10.2 5.2-14 3.6-3.7 8.4-6 13.6-6.2q0.7 0 1.4 0z"/>
	<path id="Layer" class="s3" d="m199 273.4q0 0.3-0.1 0.6-0.1 0.3-0.3 0.5-0.2 0.2-0.5 0.3-0.3 0.1-0.5 0.1h-100.3c-5.4 0-10.6-2.2-14.5-6-3.8-3.9-6-9.1-6-14.5 0-5.5 2.1-10.7 6-14.5 3.8-3.9 9.1-6 14.5-6.1h100.3c0.3 0 0.7 0.2 1 0.5 0.3 0.3 0.5 0.7 0.5 1 0 0.4-0.2 0.8-0.5 1.1-0.3 0.3-0.7 0.4-1 0.4h-100.3c-4.6 0.1-9.1 1.9-12.4 5.2-3.2 3.3-5.1 7.7-5.1 12.4 0 4.6 1.9 9.1 5.1 12.4 3.3 3.2 7.8 5.1 12.4 5.1h100.3q0.2 0 0.5 0.1 0.3 0.1 0.5 0.3 0.2 0.3 0.3 0.5 0.1 0.3 0.1 0.6z"/>
	<path id="Layer" class="s0" d="m196.7 243.7h-104.9q-0.1 0-0.2 0-0.1-0.1-0.1-0.3 0-0.1 0.1-0.2 0-0.1 0.2-0.1h104.9q0.1 0 0.2 0.1 0 0.1 0 0.2 0 0.2 0 0.2-0.1 0.1-0.2 0.1z"/>
	<path id="Layer" class="s0" d="m196.7 250.9h-104.9q-0.1 0-0.2-0.1-0.1 0-0.1-0.2 0-0.1 0.1-0.2 0-0.1 0.2-0.1h104.9q0.1 0 0.2 0.1 0 0.1 0 0.2 0 0.2 0 0.2-0.1 0.1-0.2 0.1z"/>
	<path id="Layer" class="s0" d="m196.7 258.1h-104.9q-0.1 0-0.2-0.1-0.1-0.1-0.1-0.2 0-0.1 0.1-0.2 0-0.1 0.2-0.1h104.9q0.1 0 0.2 0.1 0 0.1 0 0.2 0 0.1 0 0.2-0.1 0.1-0.2 0.1z"/>
	<path id="Layer" class="s0" d="m196.7 265.3h-104.9q-0.1 0-0.2-0.1-0.1-0.1-0.1-0.2 0-0.1 0.1-0.2 0-0.1 0.2-0.1h104.9q0.1 0 0.2 0.1 0 0.1 0 0.2 0 0.1 0 0.2-0.1 0.1-0.2 0.1z"/>
	<path id="Layer" class="s3" d="m119 78.2h-44.4q-0.2 0-0.3 0.1-0.2 0-0.4 0-0.1 0-0.3 0.1-0.1 0-0.3 0.1l-11.2 5.6q-0.5 0.3-0.9 0.8-0.3 0.5-0.3 1.1 0 0.6 0.3 1.1 0.4 0.6 0.9 0.8l11.2 5.6q0.2 0.1 0.3 0.1 0.2 0.1 0.3 0.1 0.2 0.1 0.4 0.1 0.1 0 0.3 0h44.4q0.5 0 0.9-0.1 0.5-0.2 0.8-0.5 0.4-0.3 0.6-0.7 0.2-0.4 0.2-0.9v-11.2q0-0.5-0.2-0.9-0.2-0.4-0.6-0.7-0.3-0.3-0.8-0.4-0.4-0.2-0.9-0.2z"/>
	<path id="Layer" class="s2" d="m121.5 80.4v11.2q0 0.5-0.2 0.9-0.2 0.4-0.6 0.7-0.3 0.3-0.8 0.5-0.4 0.1-0.9 0.1h-8.8v-15.6h8.8q0.5 0 0.9 0.2 0.5 0.1 0.8 0.4 0.4 0.3 0.6 0.7 0.2 0.4 0.2 0.9z"/>
	<path id="Layer" class="s5" d="m333.6 174.4l-4.7-2-3.2-23.5h-42.9l-3.5 23.4-4.2 2.1q-0.3 0.2-0.4 0.5-0.2 0.3-0.1 0.6 0.1 0.4 0.4 0.6 0.2 0.2 0.6 0.2h57.6q0.4 0 0.7-0.2 0.3-0.3 0.3-0.6 0.1-0.4-0.1-0.7-0.1-0.3-0.5-0.4z"/>
	<path id="Layer" class="s0" d="m409.9 152h-210.7q-0.9 0-1.6-0.3-0.8-0.3-1.4-0.9-0.6-0.6-0.9-1.4-0.3-0.8-0.3-1.6v-29.7h219v29.7q0 0.8-0.3 1.6-0.3 0.8-0.9 1.4-0.6 0.6-1.4 0.9-0.7 0.3-1.5 0.3z"/>
	<path id="Layer" class="s3" d="m414.2 132.2h-219.4v-127.2q0-1 0.4-1.9 0.4-0.9 1.1-1.6 0.7-0.7 1.6-1.1 0.9-0.4 1.9-0.4h209.4q1 0 1.9 0.4 1 0.4 1.7 1.1 0.7 0.7 1.1 1.6 0.3 0.9 0.3 1.9z"/>
	<path id="Layer" class="s4" d="m401.1 122.9h-193.2q-0.8 0-1.5-0.3-0.7-0.3-1.2-0.8-0.6-0.6-0.9-1.3-0.3-0.7-0.3-1.5v-105.9q0-0.8 0.3-1.5 0.3-0.7 0.9-1.2 0.5-0.6 1.2-0.9 0.7-0.3 1.5-0.3h193.2q0.8 0 1.5 0.3 0.7 0.3 1.3 0.9 0.5 0.5 0.8 1.2 0.3 0.7 0.3 1.5v105.9q0 0.8-0.3 1.5-0.3 0.7-0.8 1.3-0.6 0.5-1.3 0.8-0.7 0.3-1.5 0.3z"/>
	<path id="Layer" class="s6" d="m350.2 160.3c1.3-1.1 2.8-2 4.4-2.5 1.6-0.5 3.3-0.7 5-0.5 1.7 0.2 3.3 0.8 4.7 1.7 1.5 0.9 2.7 2.1 3.6 3.6l26.1-4.7 6.7 15.2-37 6.1c-2.5 1.3-5.4 1.8-8.2 1.1-2.8-0.6-5.2-2.2-6.9-4.6-1.6-2.3-2.4-5.1-2.1-8 0.3-2.8 1.6-5.5 3.7-7.4z"/>
	<path id="Layer" class="s2" d="m374.4 179.7l27.3-0.3 3.4-0.1 55.5-0.7c0 0 15-14.3 28.1-29.1l-1.8-13.3q-0.7-4.9-2.2-9.5-1.5-4.7-3.9-9-2.3-4.3-5.4-8.1-3-3.8-6.7-7c-18.8 12.5-29.7 37.3-29.7 37.3l-34.3 8.3-3.5 0.8-21.3 5.1z"/>
	<path id="Layer" class="s7" d="m513.9 261.4h-50.8c0 2.2-55.6 3.9-55.6 3.9q-0.5 0.4-0.9 0.7-0.5 0.4-0.9 0.8-0.4 0.4-0.8 0.8-0.4 0.4-0.8 0.9-1.1 1.3-1.9 2.8-0.9 1.5-1.5 3.1-0.6 1.6-0.9 3.3-0.3 1.7-0.2 3.4v3.2c0 2.6 0.5 5.1 1.5 7.5 0.9 2.4 2.4 4.6 4.2 6.4 1.9 1.9 4 3.3 6.4 4.3 2.4 1 5 1.5 7.6 1.5h94.6c2.6 0 5.2-0.5 7.6-1.5 2.4-1 4.5-2.4 6.4-4.3 1.8-1.8 3.3-4 4.2-6.4 1-2.4 1.5-4.9 1.6-7.5v-3.2c-0.1-2.6-0.6-5.1-1.6-7.5-1-2.4-2.4-4.6-4.2-6.4-1.9-1.9-4-3.3-6.4-4.3-2.4-1-5-1.5-7.6-1.5z"/>
	<path id="Layer" class="s7" d="m456.4 303.2h20.5v118.5h-20.5z"/>
	<path id="Layer" class="s7" d="m398 421c0 2.2 31.1 0.9 69.5 0.9 38.3 0 69.4 1.3 69.4-0.9 0-2.2-31.1-19.8-69.4-19.8-38.4 0-69.5 17.6-69.5 19.8z"/>
	<path id="Layer" class="s6" d="m384.2 407.5h-15.3l-7.3-59h22.6v59z"/>
	<path id="Layer" class="s8" d="m388.1 422.3h-49.3v-0.7c0-2.5 0.5-5 1.5-7.3 0.9-2.3 2.4-4.4 4.1-6.2 1.8-1.8 3.9-3.2 6.3-4.2 2.3-0.9 4.8-1.4 7.3-1.4h30.1z"/>
	<path id="Layer" class="s6" d="m339 407.5h-15.2l-7.3-59h22.5v59z"/>
	<path id="Layer" class="s8" d="m342.9 422.3h-49.2v-0.7c0-2.5 0.5-5 1.4-7.3 1-2.3 2.4-4.4 4.2-6.2 1.8-1.8 3.9-3.2 6.2-4.2 2.3-0.9 4.8-1.4 7.3-1.4h30.1z"/>
	<path id="Layer" class="s6" d="m475.9 68.2c-14.7 0-26.6-11.9-26.6-26.6 0-14.7 11.9-26.5 26.6-26.5 14.7 0 26.6 11.8 26.6 26.5 0 14.7-11.9 26.6-26.6 26.6z"/>
	<path id="Layer" class="s8" d="m518.9 223.6c0 0 8.9 47.2-25 53.2-33.9 6-82.9 10.2-82.9 10.2l-22 102.6-29.5-2.7c0 0 3.9-123.4 13.6-133.1 9.6-9.7 70.7-38.6 70.7-38.6z"/>
	<path id="Layer" class="s8" d="m452.6 203.9l-14.8 14.9c0 0-107.1 17.2-111.2 42-6.2 37.3-13.6 118.5-13.6 118.5l32.2-2.4 12.6-92.3 51.5-11.7 58.6-32z"/>
	<path id="Layer" class="s8" d="m501.4 25.8c-2.6-5-5.9-14.8-11.2-16.7q-1.1-0.3-2.2-0.6-1.1-0.3-2.3-0.6-1.1-0.2-2.3-0.4-1.1-0.2-2.3-0.3l-9 3.5 4.9-3.8q-1.4-0.1-2.8-0.2l-6.1 2.4 3.1-2.5c-5.6 0-11.5 0.6-15.9 4-3.7 3-7.4 14.1-8 18.8q-0.2 1.7-0.3 3.4-0.1 1.7 0 3.4 0.1 1.7 0.3 3.4 0.3 1.7 0.7 3.3l1.5 1.5q0.2-0.5 0.4-0.9 0.1-0.5 0.3-1 0.1-0.5 0.3-1 0.1-0.5 0.2-0.9 0.4-1.9 1.2-3.6 0.8-1.7 1.9-3.3 1.1-1.5 2.5-2.8 1.5-1.2 3.1-2.2h0.1c2.6-1.5 5.7-1.4 8.6-1.3l14.1 0.5c3.4 0.1 7 0.4 9.6 2.5q0.7 0.6 1.2 1.2 0.6 0.7 1.1 1.4 0.5 0.7 0.9 1.4 0.4 0.8 0.7 1.6c1.3 2.6 3.9 12.6 3.9 12.6 0 0 1.4-1.9 2.1-0.5q0.4-1.4 0.8-2.8 0.3-1.4 0.5-2.8 0.3-1.4 0.5-2.8 0.1-1.4 0.2-2.8 0.1-1.5 0-2.9-0.1-1.4-0.4-2.8-0.3-1.4-0.7-2.8-0.5-1.3-1.2-2.6z"/>
	<path id="Layer" class="s6" d="m594.4 53.3c-1.7 0.1-3.4 0.6-4.9 1.4-1.5 0.8-2.8 2-3.8 3.3-1 1.4-1.6 3-2 4.6-0.3 1.7-0.3 3.4 0.1 5.1l-21.3 15.7 6.4 15.4 29.8-22.7c2.8-0.9 5.1-2.7 6.5-5.2 1.5-2.4 2-5.4 1.5-8.2-0.6-2.8-2.1-5.3-4.4-7-2.3-1.8-5.1-2.6-7.9-2.4z"/>
	<path id="Layer" class="s2" d="m590.9 85.5l-53.5 59.4c0 0-25.6-8.2-45.4-17l-8.9-27.4q-0.8-2.3-1.4-4.8-0.5-2.4-0.8-4.9-0.4-2.5-0.5-4.9-0.1-2.5 0.1-5c27.4-7.3 59.3 19.8 59.3 19.8l40.1-31.4z"/>
	<path id="Layer" class="s2" d="m466 228c-9.6-3.3-19.5-6.7-30.1-8h-0.5l0.1-0.5c11.1-38.7 8.3-63.5 2.9-100.7-0.6-4-0.5-8 0.2-12 0.7-4 2.1-7.8 4-11.3 2-3.5 4.4-6.8 7.4-9.5 2.9-2.7 6.3-5 10-6.7l30.5-1.9 22.2 6.5c1.5 0.4 3 1.2 4.4 2.1 1.3 1 2.5 2.1 3.5 3.4 1 1.4 1.7 2.9 2.2 4.4 0.5 1.6 0.8 3.2 0.7 4.9-0.2 12.2 0.3 25.9 0.8 40.4 1.2 32.4 2.5 66-4.6 87.8v0.1h-0.1q-2.4 2-5.2 3.5-2.7 1.6-5.7 2.6-2.9 1-6 1.6-3.1 0.5-6.2 0.5c-9.9 0-20.1-3.6-30.5-7.2z"/>
	<path id="Layer" class="s0" d="m686.9 424.8h-976.5c-0.4 0-0.7-0.1-1-0.4-0.3-0.2-0.4-0.6-0.4-1 0-0.4 0.1-0.7 0.4-1 0.3-0.2 0.6-0.4 1-0.4h976.5c0.4 0 0.7 0.2 1 0.4 0.3 0.3 0.4 0.6 0.4 1 0 0.4-0.1 0.8-0.4 1-0.3 0.3-0.6 0.4-1 0.4z"/>
</svg>